<?xml version="1.0" encoding="UTF-8"?>
<svg width="125px" height="39px" viewBox="0 0 125 39" version="1.1" xmlns="http://www.w3.org/2000/svg" xmlns:xlink="http://www.w3.org/1999/xlink">
    <!-- Generator: Sketch 42 (36781) - http://www.bohemiancoding.com/sketch -->
    <title>Combined Shape</title>
    <desc>Created with Sketch.</desc>
    <defs></defs>
    <g id="Page-1" stroke="none" stroke-width="1" fill="none" fill-rule="evenodd">
        <g id="Work" transform="translate(-152.000000, -44.000000)" fill="#4A4A4A">
            <path d="M213.74606,44.8677246 L219.344354,44.8677246 L227.537068,70.4973852 L227.639823,70.4973852 L235.935814,44.8677246 L244.283442,44.8677246 L232.071306,81.320945 L222.951193,81.320945 L213.248616,51.6074488 L205.417208,51.6074488 L205.417208,81.3212034 L197.327248,81.3212034 L197.327248,51.6071904 L186.300179,51.6071904 L186.300179,44.8677246 L213.74606,44.8677246 Z M177.197018,54.5938376 C176.715584,53.8279247 176.114705,53.1563296 175.393338,52.5772435 C174.67197,51.9986743 173.855671,51.5480157 172.946007,51.2239755 C172.0353,50.9009691 171.081822,50.7392074 170.086094,50.7392074 C168.26494,50.7392074 166.718929,51.0885712 165.44832,51.7857484 C164.177189,52.4837009 163.146776,53.4193861 162.356818,54.5938376 C161.566339,55.7680308 160.991539,57.1039857 160.630595,58.6017022 C160.269911,60.0996771 160.089438,61.6482994 160.089438,63.2475691 C160.089438,64.7793951 160.269911,66.2685842 160.630595,67.7151365 C160.991279,69.162464 161.566078,70.4640509 162.356818,71.6204141 C163.146776,72.7780694 164.177189,73.705744 165.44832,74.4034381 C166.718929,75.1011321 168.26468,75.4502375 170.086094,75.4502375 C172.559244,75.4502375 174.491758,74.7018961 175.883117,73.2036628 C177.274214,71.7062047 178.124416,69.7317306 178.433723,67.2810158 L186.266014,67.2810158 C186.059723,69.5617 185.527173,71.6206725 184.668625,73.4587087 C183.809556,75.2967448 182.675866,76.8626803 181.267817,78.1557398 C179.858724,79.4498331 178.210219,80.4366825 176.321258,81.1168049 C174.431514,81.7974442 172.353474,82.1380223 170.086355,82.1380223 C167.269213,82.1380223 164.735298,81.6532541 162.485913,80.683201 C160.235746,79.7128895 158.337657,78.3774515 156.792167,76.6750781 C155.246155,74.9737383 154.061088,72.9739405 153.236705,70.6762016 C152.412322,68.3784626 152,65.9024241 152,63.2475691 C152,60.525012 152.412061,57.9980676 153.236705,55.6659608 C154.061349,53.3348876 155.246155,51.3007219 156.792167,49.5650142 C158.337657,47.8287897 160.235746,46.4682864 162.485913,45.4804033 C164.735298,44.4935539 167.268952,44 170.086355,44 C172.113018,44 174.028059,44.2896722 175.831479,44.8677246 C177.63542,45.4468107 179.249239,46.2892116 180.675544,47.3949274 C182.100546,48.5016768 183.277528,49.8712244 184.204926,51.5051204 C185.132585,53.138758 185.716252,55.011162 185.956969,57.1210404 L178.124677,57.1210404 C177.986715,56.2021516 177.677408,55.3594922 177.197018,54.5938376 Z M267.395379,54.5938376 C266.913684,53.8279247 266.313848,53.1563296 265.59222,52.5772435 C264.870591,51.9986743 264.054293,51.5480157 263.144107,51.2239755 C262.233921,50.9009691 261.280182,50.7392074 260.284455,50.7392074 C258.46304,50.7392074 256.91755,51.0885712 255.647202,51.7857484 C254.375811,52.4837009 253.345136,53.4193861 252.555439,54.5938376 C251.76496,55.7680308 251.190161,57.1039857 250.829216,58.6017022 C250.468532,60.0996771 250.288582,61.6482994 250.288582,63.2475691 C250.288582,64.7793951 250.468532,66.2685842 250.829216,67.7151365 C251.190161,69.162464 251.76496,70.4640509 252.555439,71.6204141 C253.345136,72.7780694 254.375811,73.705744 255.647202,74.4034381 C256.91755,75.1011321 258.46304,75.4502375 260.284455,75.4502375 C262.757865,75.4502375 264.69064,74.7018961 266.081477,73.2036628 C267.472575,71.7062047 268.323038,69.7317306 268.632084,67.2810158 L276.464375,67.2810158 C276.257823,69.5617 275.725012,71.6206725 274.866725,73.4587087 C274.007656,75.2967448 272.873966,76.8626803 271.465917,78.1557398 C270.057607,79.4498331 268.408058,80.4366825 266.519357,81.1168049 C264.629614,81.7974442 262.551574,82.1380223 260.284455,82.1380223 C257.467313,82.1380223 254.933658,81.6532541 252.684013,80.683201 C250.434107,79.7128895 248.536018,78.3774515 246.989745,76.6750781 C245.444255,74.9737383 244.259188,72.9739405 243.434283,70.6762016 C242.610161,68.3784626 242.197839,65.9024241 242.197839,63.2475691 C242.197839,60.525012 242.610161,57.9980676 243.434283,55.6659608 C244.259188,53.3348876 245.444255,51.3007219 246.989745,49.5650142 C248.536018,47.8287897 250.434107,46.4682864 252.684013,45.4804033 C254.933658,44.4935539 257.467313,44 260.284455,44 C262.310857,44 264.226159,44.2896722 266.029318,44.8677246 C267.833259,45.4468107 269.447078,46.2892116 270.873122,47.3949274 C272.298124,48.5016768 273.475628,49.8712244 274.402765,51.5051204 C275.330424,53.138758 275.914091,55.011162 276.155068,57.1210404 L268.322777,57.1210404 C268.185075,56.2021516 267.875769,55.3594922 267.395379,54.5938376 Z" id="Combined-Shape"></path>
        </g>
    </g>
</svg>