<?xml version="1.0" encoding="UTF-8"?>
<svg width="149px" height="61px" viewBox="0 0 149 61" version="1.1" xmlns="http://www.w3.org/2000/svg" xmlns:xlink="http://www.w3.org/1999/xlink">
    <!-- Generator: Sketch 42 (36781) - http://www.bohemiancoding.com/sketch -->
    <title>Page 1</title>
    <desc>Created with Sketch.</desc>
    <defs></defs>
    <g id="Page-1" stroke="none" stroke-width="1" fill="none" fill-rule="evenodd">
        <g transform="translate(2.000000, 2.000000)">
            <path d="M124.3954,19.5938 C123.9134,18.8278 123.3134,18.1558 122.5924,17.5768 C121.8704,16.9988 121.0544,16.5478 120.1444,16.2238 C119.2344,15.9008 118.2804,15.7388 117.2844,15.7388 C115.4634,15.7388 113.9174,16.0888 112.6474,16.7858 C111.3754,17.4838 110.3454,18.4198 109.5554,19.5938 C108.7654,20.7678 108.1904,22.1038 107.8294,23.6018 C107.4684,25.0998 107.2884,26.6478 107.2884,28.2478 C107.2884,29.7798 107.4684,31.2688 107.8294,32.7148 C108.1904,34.1628 108.7654,35.4638 109.5554,36.6208 C110.3454,37.7778 111.3754,38.7058 112.6474,39.4038 C113.9174,40.1008 115.4634,40.4498 117.2844,40.4498 C119.7574,40.4498 121.6904,39.7018 123.0814,38.2038 C124.4724,36.7058 125.3234,34.7318 125.6324,32.2808 L133.4644,32.2808 C133.2574,34.5618 132.7254,36.6208 131.8664,38.4588 C131.0074,40.2968 129.8744,41.8628 128.4664,43.1558 C127.0574,44.4498 125.4084,45.4368 123.5194,46.1168 C121.6294,46.7978 119.5514,47.1378 117.2844,47.1378 C114.4674,47.1378 111.9334,46.6528 109.6844,45.6828 C107.4344,44.7128 105.5364,43.3778 103.9894,41.6748 C102.4444,39.9738 101.2594,37.9738 100.4344,35.6758 C99.6104,33.3788 99.1974,30.9028 99.1974,28.2478 C99.1974,25.5248 99.6104,22.9978 100.4344,20.6658 C101.2594,18.3348 102.4444,16.3008 103.9894,14.5648 C105.5364,12.8288 107.4344,11.4678 109.6844,10.4808 C111.9334,9.4938 114.4674,8.9998 117.2844,8.9998 C119.3104,8.9998 121.2264,9.2898 123.0294,9.8678 C124.8334,10.4468 126.4474,11.2888 127.8734,12.3948 C129.2984,13.5018 130.4754,14.8708 131.4024,16.5048 C132.3304,18.1388 132.9144,20.0108 133.1554,22.1208 L125.3224,22.1208 C125.1854,21.2018 124.8754,20.3598 124.3954,19.5938 L124.3954,19.5938 Z M34.1974,19.5938 C33.7154,18.8278 33.1144,18.1558 32.3934,17.5768 C31.6724,16.9988 30.8554,16.5478 29.9464,16.2238 C29.0354,15.9008 28.0814,15.7388 27.0864,15.7388 C25.2654,15.7388 23.7194,16.0888 22.4484,16.7858 C21.1774,17.4838 20.1464,18.4198 19.3564,19.5938 C18.5664,20.7678 17.9914,22.1038 17.6304,23.6018 C17.2704,25.0998 17.0894,26.6478 17.0894,28.2478 C17.0894,29.7798 17.2704,31.2688 17.6304,32.7148 C17.9914,34.1628 18.5664,35.4638 19.3564,36.6208 C20.1464,37.7778 21.1774,38.7058 22.4484,39.4038 C23.7194,40.1008 25.2644,40.4498 27.0864,40.4498 C29.5594,40.4498 31.4914,39.7018 32.8834,38.2038 C34.2744,36.7058 35.1244,34.7318 35.4334,32.2808 L43.2664,32.2808 C43.0594,34.5618 42.5274,36.6208 41.6684,38.4588 C40.8094,40.2968 39.6754,41.8628 38.2674,43.1558 C36.8584,44.4498 35.2104,45.4368 33.3214,46.1168 C31.4314,46.7978 29.3534,47.1378 27.0864,47.1378 C24.2694,47.1378 21.7354,46.6528 19.4864,45.6828 C17.2354,44.7128 15.3374,43.3778 13.7924,41.6748 C12.2464,39.9738 11.0614,37.9738 10.2364,35.6758 C9.4124,33.3788 9.0004,30.9028 9.0004,28.2478 C9.0004,25.5248 9.4124,22.9978 10.2364,20.6658 C11.0614,18.3348 12.2464,16.3008 13.7924,14.5648 C15.3374,12.8288 17.2354,11.4678 19.4864,10.4808 C21.7354,9.4938 24.2694,8.9998 27.0864,8.9998 C29.1134,8.9998 31.0284,9.2898 32.8314,9.8678 C34.6354,10.4468 36.2494,11.2888 37.6754,12.3948 C39.1004,13.5018 40.2774,14.8708 41.2054,16.5048 C42.1324,18.1388 42.7164,20.0108 42.9574,22.1208 L35.1244,22.1208 C34.9864,21.2018 34.6774,20.3598 34.1974,19.5938 L34.1974,19.5938 Z M70.7464,9.8678 L76.3444,9.8678 L84.5374,35.4978 L84.6394,35.4978 L92.9354,9.8678 L101.2834,9.8678 L89.0714,46.3208 L79.9514,46.3208 L70.2484,16.6078 L62.4174,16.6078 L62.4174,46.3208 L54.3274,46.3208 L54.3274,16.6068 L43.3004,16.6068 L43.3004,9.8678 L70.7464,9.8678 Z" id="Fill-1" fill="#FFFFFF"></path>
            <path d="M28.5,0 L116.5,0 C132.24,0 145,12.76 145,28.5 C145,44.24 132.24,57 116.5,57 L28.5,57 C12.76,57 0,44.24 0,28.5 C0,12.76 12.76,0 28.5,0 Z" id="Stroke-3" stroke="#FFFFFF" stroke-width="3" opacity="0.277570199"></path>
        </g>
    </g>
</svg>