<?xml version="1.0" encoding="UTF-8"?>
<svg width="145px" height="57px" viewBox="0 0 145 57" version="1.1" xmlns="http://www.w3.org/2000/svg" xmlns:xlink="http://www.w3.org/1999/xlink">
    <!-- Generator: Sketch 42 (36781) - http://www.bohemiancoding.com/sketch -->
    <title>Group 7</title>
    <desc>Created with Sketch.</desc>
    <defs>
        <radialGradient cx="3.061617e-15%" cy="50%" fx="3.061617e-15%" fy="50%" r="100%" id="radialGradient-1">
            <stop stop-color="#14A9E5" offset="0%"></stop>
            <stop stop-color="#00A89D" offset="25.9526467%"></stop>
            <stop stop-color="#DB115B" offset="73.3757175%"></stop>
            <stop stop-color="#D8E100" offset="100%"></stop>
        </radialGradient>
        <rect id="path-2" x="0" y="0" width="145" height="57" rx="28.5"></rect>
        <mask id="mask-3" maskContentUnits="userSpaceOnUse" maskUnits="objectBoundingBox" x="0" y="0" width="145" height="57" fill="white">
            <use xlink:href="#path-2"></use>
        </mask>
    </defs>
    <g id="Page-1" stroke="none" stroke-width="1" fill="none" fill-rule="evenodd">
        <g id="Group-7">
            <path d="M70.7460597,9.86772463 L76.3443538,9.86772463 L84.5370684,35.4973852 L84.6398229,35.4973852 L92.9358135,9.86772463 L101.283442,9.86772463 L89.0713058,46.320945 L79.9511929,46.320945 L70.2486157,16.6074488 L62.4172084,16.6074488 L62.4172084,46.3212034 L54.3272483,46.3212034 L54.3272483,16.6071904 L43.300179,16.6071904 L43.300179,9.86772463 L70.7460597,9.86772463 Z M34.1970179,19.5938376 C33.7155844,18.8279247 33.1147053,18.1563296 32.3933375,17.5772435 C31.6719697,16.9986743 30.8556714,16.5480157 29.9460072,16.2239755 C29.0352999,15.9009691 28.0818217,15.7392074 27.0860942,15.7392074 C25.2649404,15.7392074 23.7189287,16.0885712 22.4483199,16.7857484 C21.1771894,17.4837009 20.1467758,18.4193861 19.356818,19.5938376 C18.5663387,20.7680308 17.9915395,22.1039857 17.6305948,23.6017022 C17.2699108,25.0996771 17.0894385,26.6482994 17.0894385,28.2475691 C17.0894385,29.7793951 17.2699108,31.2685842 17.6305948,32.7151365 C17.9912787,34.162464 18.5660779,35.4640509 19.356818,36.6204141 C20.1467758,37.7780694 21.1771894,38.705744 22.4483199,39.4034381 C23.7189287,40.1011321 25.2646796,40.4502375 27.0860942,40.4502375 C29.5592435,40.4502375 31.4917582,39.7018961 32.8831165,38.2036628 C34.2742141,36.7062047 35.1244163,34.7317306 35.4337229,32.2810158 L43.2660144,32.2810158 C43.059723,34.5617 42.5271731,36.6206725 41.6686254,38.4587087 C40.8095562,40.2967448 39.6758664,41.8626803 38.2678169,43.1557398 C36.8587243,44.4498331 35.2102189,45.4366825 33.3212575,46.1168049 C31.4315138,46.7974442 29.3534737,47.1380223 27.086355,47.1380223 C24.2692129,47.1380223 21.7352976,46.6532541 19.4859131,45.683201 C17.2357463,44.7128895 15.337657,43.3774515 13.7921669,41.6750781 C12.2461552,39.9737383 11.0610882,37.9739405 10.2367051,35.6762016 C9.41232195,33.3784626 9,30.9024241 9,28.2475691 C9,25.525012 9.41206115,22.9980676 10.2367051,20.6659608 C11.061349,18.3348876 12.2461552,16.3007219 13.7921669,14.5650142 C15.337657,12.8287897 17.2357463,11.4682864 19.4859131,10.4804033 C21.7352976,9.49355392 24.2689521,9 27.086355,9 C29.1130178,9 31.028059,9.28967222 32.8314785,9.86772463 C34.6354196,10.4468107 36.2492389,11.2892116 37.6755442,12.3949274 C39.1005456,13.5016768 40.2775278,14.8712244 41.2049262,16.5051204 C42.1325854,18.138758 42.7162518,20.011162 42.9569685,22.1210404 L35.1246771,22.1210404 C34.9867148,21.2021516 34.6774081,20.3594922 34.1970179,19.5938376 Z M124.395379,19.5938376 C123.913684,18.8279247 123.313848,18.1563296 122.59222,17.5772435 C121.870591,16.9986743 121.054293,16.5480157 120.144107,16.2239755 C119.233921,15.9009691 118.280182,15.7392074 117.284455,15.7392074 C115.46304,15.7392074 113.91755,16.0885712 112.647202,16.7857484 C111.375811,17.4837009 110.345136,18.4193861 109.555439,19.5938376 C108.76496,20.7680308 108.190161,22.1039857 107.829216,23.6017022 C107.468532,25.0996771 107.288582,26.6482994 107.288582,28.2475691 C107.288582,29.7793951 107.468532,31.2685842 107.829216,32.7151365 C108.190161,34.162464 108.76496,35.4640509 109.555439,36.6204141 C110.345136,37.7780694 111.375811,38.705744 112.647202,39.4034381 C113.91755,40.1011321 115.46304,40.4502375 117.284455,40.4502375 C119.757865,40.4502375 121.69064,39.7018961 123.081477,38.2036628 C124.472575,36.7062047 125.323038,34.7317306 125.632084,32.2810158 L133.464375,32.2810158 C133.257823,34.5617 132.725012,36.6206725 131.866725,38.4587087 C131.007656,40.2967448 129.873966,41.8626803 128.465917,43.1557398 C127.057607,44.4498331 125.408058,45.4366825 123.519357,46.1168049 C121.629614,46.7974442 119.551574,47.1380223 117.284455,47.1380223 C114.467313,47.1380223 111.933658,46.6532541 109.684013,45.683201 C107.434107,44.7128895 105.536018,43.3774515 103.989745,41.6750781 C102.444255,39.9737383 101.259188,37.9739405 100.434283,35.6762016 C99.610161,33.3784626 99.197839,30.9024241 99.197839,28.2475691 C99.197839,25.525012 99.610161,22.9980676 100.434283,20.6659608 C101.259188,18.3348876 102.444255,16.3007219 103.989745,14.5650142 C105.536018,12.8287897 107.434107,11.4682864 109.684013,10.4804033 C111.933658,9.49355392 114.467313,9 117.284455,9 C119.310857,9 121.226159,9.28967222 123.029318,9.86772463 C124.833259,10.4468107 126.447078,11.2892116 127.873122,12.3949274 C129.298124,13.5016768 130.475628,14.8712244 131.402765,16.5051204 C132.330424,18.138758 132.914091,20.011162 133.155068,22.1210404 L125.322777,22.1210404 C125.185075,21.2021516 124.875769,20.3594922 124.395379,19.5938376 Z" id="Combined-Shape" fill="url(#radialGradient-1)"></path>
            <use id="Rectangle-4" stroke="#EEEEEE" mask="url(#mask-3)" stroke-width="4" xlink:href="#path-2"></use>
        </g>
    </g>
</svg>