<?xml version="1.0" encoding="UTF-8"?>
<svg width="167px" height="49px" viewBox="0 0 167 49" version="1.1" xmlns="http://www.w3.org/2000/svg" xmlns:xlink="http://www.w3.org/1999/xlink">
    <!-- Generator: Sketch 42 (36781) - http://www.bohemiancoding.com/sketch -->
    <title>Group 4</title>
    <desc>Created with Sketch.</desc>
    <defs></defs>
    <g id="Page-1" stroke="none" stroke-width="1" fill="none" fill-rule="evenodd">
        <g id="Homepage" transform="translate(-146.000000, -1979.000000)" fill-rule="nonzero" fill="#000000">
            <g id="Group-4" transform="translate(145.000000, 1979.000000)">
                <g id="BBC">
                    <g id="Group" transform="translate(0.479655, 0.164631)">
                        <g transform="translate(84.054019, 24.229291) scale(-1, 1) rotate(-180.000000) translate(-84.054019, -24.229291) translate(58.554019, 0.229291)" id="Shape">
                            <path d="M32.5231353,16.9340484 C32.5231353,11.7851823 26.1101227,12.0904529 26.1101227,12.0904529 L19.6971101,12.0904529 L19.6971101,21.396399 L26.1101227,21.396399 C32.7141514,21.4343862 32.5231353,16.9340484 32.5231353,16.9340484 L32.5231353,16.9340484 Z M19.6971101,35.5843855 L24.5833676,35.5843855 C29.6601832,35.3171021 29.4691671,31.5417247 29.4691671,31.5417247 C29.4691671,26.8505356 23.857781,26.7741035 23.857781,26.7741035 L19.6971101,26.7741035 L19.6971101,35.5843855 Z M31.3399344,24.9433956 C31.3399344,24.9433956 35.7296416,26.8120907 35.6916216,31.7705632 C35.6916216,31.7705632 36.3590329,39.8938719 25.5851718,40.885658 L13.6276517,40.885658 L13.6276517,6.82716756 L27.3318016,6.82716756 C27.3318016,6.82716756 38.7836098,6.78872269 38.7836098,16.4383842 C38.7836098,16.4383842 39.0506659,22.9982684 31.3399344,24.9433956 L31.3399344,24.9433956 Z M0.39943907,47.5597783 L50.7315103,47.5597783 L50.7315103,0.170072767 L0.39943907,0.170072767 L0.39943907,47.5597783 Z"></path>
                        </g>
                        <g transform="translate(26.012339, 24.229291) scale(-1, 1) rotate(-180.000000) translate(-26.012339, -24.229291) translate(0.512339, 0.229291)" id="Shape">
                            <path d="M32.5231353,16.9340484 C32.5231353,11.7851823 26.1101227,12.0904529 26.1101227,12.0904529 L19.6971101,12.0904529 L19.6971101,21.396399 L26.1101227,21.396399 C32.7141514,21.4343862 32.5231353,16.9340484 32.5231353,16.9340484 L32.5231353,16.9340484 Z M19.6971101,35.5843855 L24.5833676,35.5843855 C29.6601832,35.3171021 29.4691671,31.5417247 29.4691671,31.5417247 C29.4691671,26.8505356 23.857781,26.7741035 23.857781,26.7741035 L19.6971101,26.7741035 L19.6971101,35.5843855 Z M31.3399344,24.9433956 C31.3399344,24.9433956 35.7296416,26.8120907 35.6916216,31.7705632 C35.6916216,31.7705632 36.3590329,39.8938719 25.5851718,40.885658 L13.6276517,40.885658 L13.6276517,6.82716756 L27.3318016,6.82716756 C27.3318016,6.82716756 38.7836098,6.78872269 38.7836098,16.4383842 C38.7836098,16.4383842 39.0506659,22.9982684 31.3399344,24.9433956 L31.3399344,24.9433956 Z M0.39943907,47.5597783 L50.7315103,47.5597783 L50.7315103,0.170072767 L0.39943907,0.170072767 L0.39943907,47.5597783 Z"></path>
                        </g>
                        <g transform="translate(142.248192, 24.229932) scale(-1, 1) rotate(-180.000000) translate(-142.248192, -24.229932) translate(116.748192, 0.229932)" id="Shape">
                            <path d="M40.3103648,38.4448666 L40.3103648,32.1518081 C40.3103648,32.1518081 34.1644084,35.9276432 27.3698216,36.0040752 C27.3698216,36.0040752 14.6967926,36.2512208 14.1242022,23.8655663 C14.1242022,23.8655663 13.6661298,12.4716978 27.2172835,11.8231695 C27.2172835,11.8231695 32.9051676,11.136654 40.6158991,16.0566816 L40.6158991,9.53478459 C40.6158991,9.53478459 30.2712517,3.39459019 18.2848731,8.12376645 C18.2848731,8.12376645 8.20728189,11.8034894 7.82524957,23.8655663 C7.82524957,23.8655663 7.40519725,36.2709009 20.8422909,40.3899938 C20.8422909,40.3899938 24.4308295,41.7630247 30.8818621,41.1529413 C30.8818621,41.1529413 34.7369988,40.7712387 40.3103648,38.4448666 L40.3103648,38.4448666 Z M0.246900985,0.170713515 L50.5789722,0.170713515 L50.5789722,47.5604191 L0.246900985,47.5604191 L0.246900985,0.170713515 Z"></path>
                        </g>
                    </g>
                </g>
            </g>
        </g>
    </g>
</svg>