<?xml version="1.0" encoding="UTF-8"?>
<svg width="82px" height="50px" viewBox="0 0 82 50" version="1.1" xmlns="http://www.w3.org/2000/svg" xmlns:xlink="http://www.w3.org/1999/xlink">
    <!-- Generator: Sketch 42 (36781) - http://www.bohemiancoding.com/sketch -->
    <title>mtv-uk-logo</title>
    <desc>Created with Sketch.</desc>
    <defs></defs>
    <g id="Page-1" stroke="none" stroke-width="1" fill="none" fill-rule="evenodd">
        <g id="Homepage" transform="translate(-870.000000, -1979.000000)" fill-rule="nonzero" fill="#000000">
            <g id="mtv-uk-logo" transform="translate(870.333333, 1979.000000)">
                <g id="Layer_1">
                    <g id="Group">
                        <g id="Group-5">
                            <path d="M46.1503091,35.9076923 L37.4750932,42.9230769 L28.6925867,35.8923077 L28.6925867,49.9384615 L0.122617892,49.9384615 L0.122617892,0 L27.7576253,0 L37.2605119,10.0461538 L46.9626526,0 L74.658969,0 L74.658969,21.4307692 C74.658969,21.4307692 68.8346191,33.1230769 68.4207837,33.9384615 C68.0069483,34.7538462 66.9953507,34.8615385 66.7807694,33.9384615 C66.5661881,33.0153846 65.7538446,23.9846154 64.5276657,23.4769231 C63.3014867,22.9692308 60.9104378,22.1230769 59.8222041,23.7846154 C58.718643,25.4615385 58.2894804,25.2307692 59.2091146,28.6 C60.1287488,31.9846154 65.6465539,45.3230769 65.6465539,45.3230769 C65.6465539,45.3230769 65.7078629,45.9384615 66.9187146,46.1230769 C68.4974199,46.3846154 70.1374342,46.4461538 70.643233,45.3230769 C71.1490318,44.2 74.6283145,33.9384615 74.6283145,33.9384615 L74.6283145,49.9384615 L57.29321,49.9384615 L56.3735758,22.6615385 C56.3735758,22.6615385 64.9568283,18.0461538 65.263373,16.7076923 C65.5699177,15.3692308 63.83794,13.1230769 62.3971798,13.9384615 C60.9717468,14.7538462 54.6262709,18.5538462 54.6262709,18.5538462 C54.6262709,18.5538462 53.9058908,18.6615385 53.2008379,18.5538462 C52.4804578,18.4461538 50.0280999,18.0461538 49.8288459,19.5846154 C49.6295918,21.1230769 49.6295918,21.9384615 49.6295918,21.9384615 C49.6295918,21.9384615 45.8437644,24.6 43.1921525,26.0461538 C40.5405405,27.4769231 37.9349103,28.2 37.3984571,28.8153846 C36.8620038,29.4307692 36.4021867,30.7692308 37.3984571,31.8923077 C38.3947274,33.0153846 39.207071,33.7384615 40.8470853,32.8153846 C42.4870996,31.8923077 48.1275226,27.4461538 48.7099576,27.2769231 C49.3690288,27.0923077 50.549226,26.1538462 50.8557707,28.2 C51.1623154,30.2461538 50.6565166,49.9384615 50.6565166,49.9384615 L46.1503091,49.9384615 L46.1503091,35.9076923 Z" id="Shape"></path>
                            <polygon id="Shape" points="34.1950646 49.9538462 34.1950646 43.1846154 30.5165279 40.1076923 30.5165279 49.9538462"></polygon>
                            <polygon id="Shape" points="40.3259592 43.3846154 44.1117866 40.1076923 44.1117866 42.5692308 43.4986972 43.3846154"></polygon>
                            <polygon id="Shape" points="30.5165279 0 37.3984571 6.96923077 39.8201604 4.2 39.207071 3.49230769"></polygon>
                            <polygon id="Shape" points="76.605528 0 81.0044449 2.66153846 81.0044449 12.9230769 76.605528 18.3538462"></polygon>
                            <polygon id="Shape" points="81.0044449 22.2615385 81.0044449 49.9538462 76.605528 49.9538462 76.605528 29.4307692"></polygon>
                        </g>
                    </g>
                </g>
            </g>
        </g>
    </g>
</svg>