<?xml version="1.0" encoding="utf-8"?>
<!-- Generator: Adobe Illustrator 19.0.0, SVG Export Plug-In . SVG Version: 6.00 Build 0)  -->
<svg version="1.1" id="Layer_1" xmlns="http://www.w3.org/2000/svg" xmlns:xlink="http://www.w3.org/1999/xlink" x="0px" y="0px"
	 viewBox="-461 322 77 77" style="enable-background:new -461 322 77 77;" xml:space="preserve">
<style type="text/css">
	.st0{fill:#333333;}
	.st1{enable-background:new    ;}
</style>
<g>
	<path class="st0" d="M-422.5,399c21.2,0,38.5-17.3,38.5-38.5s-17.3-38.5-38.5-38.5s-38.5,17.3-38.5,38.5S-443.7,399-422.5,399z
		 M-422.5,327c18.5,0,33.5,15,33.5,33.5s-15,33.5-33.5,33.5s-33.5-15-33.5-33.5S-441,327-422.5,327z"/>
	<path class="st0" d="M-436.3,374.3c0.5,0.5,1.1,0.7,1.8,0.7s1.3-0.2,1.8-0.7l10.2-10.3l10.3,10.3c0.5,0.5,1.1,0.7,1.8,0.7
		c0.7,0,1.3-0.2,1.8-0.7c1-1,1-2.6,0-3.5l-10.4-10.3l10.3-10.3c1-1,1-2.6,0-3.5c-1-1-2.6-1-3.5,0l-10.3,10.3l-10.3-10.3
		c-1-1-2.6-1-3.5,0c-1,1-1,2.6,0,3.5l10.3,10.3l-10.3,10.3C-437.3,371.7-437.3,373.3-436.3,374.3z"/>
</g>
<text transform="matrix(1 0 0 1 -461 437)" style="font-family:'HelveticaNeue-Bold'; font-size:5px;">Created by Genius Icons</text>
<text transform="matrix(1 0 0 1 -461 442)" style="font-family:'HelveticaNeue-Bold'; font-size:5px;">from the Noun Project</text>
</svg>
