<?xml version="1.0" encoding="utf-8"?>
<!-- Generator: Adobe Illustrator 19.0.0, SVG Export Plug-In . SVG Version: 6.00 Build 0)  -->
<svg version="1.1" id="Layer_1" xmlns="http://www.w3.org/2000/svg" xmlns:xlink="http://www.w3.org/1999/xlink" x="0px" y="0px"
	 viewBox="-473 346 77 77" style="enable-background:new -473 346 77 77;" xml:space="preserve">
<style type="text/css">
	.st0{opacity:0.5;fill:#FFFFFF;}
	.st1{fill:#FFFFFF;}
	.st2{enable-background:new    ;}
</style>
<g>
	<g>
		<path class="st0" d="M-434.5,423c21.2,0,38.5-17.3,38.5-38.5s-17.3-38.5-38.5-38.5s-38.5,17.3-38.5,38.5S-455.7,423-434.5,423z
			 M-434.5,351c18.5,0,33.5,15,33.5,33.5s-15,33.5-33.5,33.5s-33.5-15-33.5-33.5S-453,351-434.5,351z"/>
		<path class="st1" d="M-448.3,398.3c0.5,0.5,1.1,0.7,1.8,0.7s1.3-0.2,1.8-0.7l10.2-10.3l10.3,10.3c0.5,0.5,1.1,0.7,1.8,0.7
			c0.7,0,1.3-0.2,1.8-0.7c1-1,1-2.6,0-3.5l-10.4-10.3l10.3-10.3c1-1,1-2.6,0-3.5c-1-1-2.6-1-3.5,0l-10.3,10.3l-10.3-10.3
			c-1-1-2.6-1-3.5,0c-1,1-1,2.6,0,3.5l10.3,10.3l-10.3,10.3C-449.3,395.7-449.3,397.3-448.3,398.3z"/>
	</g>
	<text transform="matrix(1 0 0 1 -473 461)" style="font-family:'HelveticaNeue-Bold'; font-size:5px;">Created by Genius Icons</text>
	<text transform="matrix(1 0 0 1 -473 466)" style="font-family:'HelveticaNeue-Bold'; font-size:5px;">from the Noun Project</text>
</g>
</svg>
