<?xml version="1.0" encoding="utf-8"?>
<!-- Generator: Adobe Illustrator 19.0.0, SVG Export Plug-In . SVG Version: 6.00 Build 0)  -->
<svg version="1.1" id="Layer_1" xmlns="http://www.w3.org/2000/svg" xmlns:xlink="http://www.w3.org/1999/xlink" x="0px" y="0px"
	 viewBox="-3448 1723.3 20 14" style="enable-background:new -3448 1723.3 20 14;" xml:space="preserve">
<style type="text/css">
	.st0{enable-background:new    ;}
	.st1{fill:#FFFFFF;}
</style>
<g class="st0">
	<path class="st1" d="M-3447.9,1733.4c0-1,1.1-4.1,3.4-9.1c0.3-0.6,0.8-1,1.5-1c0.5,0,1.1,0.2,1.5,0.5c0.5,0.3,0.7,0.8,0.7,1.3
		c0,0.3-0.1,0.6-0.1,0.7l-1.6,3.9c1.5,0.7,2.3,1.8,2.3,3.6c0,1.1-0.4,2-1.1,2.8c-0.7,0.7-1.7,1.1-2.7,1.1c-1,0-1.9-0.4-2.7-1.1
		C-3447.5,1735.4-3447.9,1734.5-3447.9,1733.4z M-3435.8,1733.4c0-1.1,1.1-4.2,3.3-9.1c0.3-0.6,0.9-1,1.6-1c0.5,0,1,0.2,1.5,0.5
		c0.4,0.3,0.7,0.8,0.7,1.3c0,0.3-0.1,0.6-0.2,0.7l-1.6,3.9c1.6,0.7,2.4,1.8,2.4,3.6c0,1.1-0.4,2-1.1,2.8c-0.7,0.7-1.7,1.1-2.7,1.1
		s-2-0.4-2.7-1.1C-3435.5,1735.4-3435.8,1734.5-3435.8,1733.4z"/>
</g>
</svg>
